<svg width="200" height="40" viewBox="0 0 200 40" fill="none" xmlns="http://www.w3.org/2000/svg">
<path d="M12.2344 23.1925L20.0032 30.9612L27.7751 23.1893L32.296 27.704L32.2929 27.7071L20.0032 40L7.71345 27.7135L7.70713 27.7071L12.2344 23.1925ZM24.5873 19.9984H24.5905L24.5873 20.0016L20.0032 24.5889L15.419 20.0079L15.4127 19.9984L16.2215 19.1896L16.6132 18.801L20.0032 15.4111L24.5873 19.9984ZM30.96 20.0019L35.4793 15.4825L39.9987 20.0019L35.4793 24.521L30.96 20.0019ZM0 20.0006L4.51939 15.4812L9.03846 20.0006L4.51939 24.52L0 20.0006ZM12.2344 16.8075L20.0032 9.04194L27.7751 16.8138L32.2929 12.2929L20.0032 0L7.71345 12.2897L12.2344 16.8075Z" fill="#F3BA2F"/>
<path d="M47.0499 9.69278H56.8817C59.3207 9.69278 61.1657 10.3246 62.4168 11.5884C63.369 12.5314 63.8935 13.8248 63.8669 15.1647V15.2247C63.8755 15.7681 63.7996 16.3093 63.6426 16.8297C63.5027 17.2773 63.2995 17.7029 63.0392 18.0934C62.7966 18.4614 62.5031 18.7935 62.1672 19.0791C61.8393 19.3615 61.4798 19.6051 61.0962 19.8057C62.2023 20.1912 63.1972 20.842 63.9933 21.7013C64.6969 22.5016 65.0485 23.6073 65.0485 25.0186V25.0786C65.0684 25.9597 64.8766 26.8333 64.4893 27.625C64.114 28.3545 63.5636 28.9797 62.8875 29.4448C62.1233 29.9572 61.2722 30.3265 60.3759 30.5347C59.3109 30.7872 58.2193 30.9091 57.125 30.8981H47.0499V9.69278ZM55.896 18.2671C56.7465 18.3082 57.5932 18.1253 58.3508 17.7364C58.9526 17.3847 59.3039 16.7191 59.2543 16.024V15.964C59.2862 15.3255 58.989 14.7132 58.4677 14.3433C57.9432 13.9705 57.1859 13.7841 56.1961 13.7841H51.5962V18.2671H55.896ZM57.1376 26.8131C57.9849 26.8605 58.8288 26.6665 59.5703 26.2539C60.1579 25.8763 60.495 25.2069 60.4486 24.5099V24.4499C60.4716 23.7893 60.1645 23.1584 59.6303 22.7692C59.0869 22.348 58.2086 22.1373 56.9954 22.1373H51.5962V26.8131H57.1376Z" fill="#F3BA2F"/>
<path d="M70.9059 9.69278H75.5722V30.9044H70.9059V9.69278Z" fill="#F3BA2F"/>
<path d="M82.6332 9.69278H86.9362L96.8817 22.747V9.69278H101.488V30.9044H97.5167L87.2458 17.4204V30.9044H82.6332V9.69278Z" fill="#F3BA2F"/>
<path d="M115.616 9.54114H119.913L129.002 30.9044H124.131L122.191 26.1465H113.222L111.282 30.9044H106.524L115.616 9.54114ZM120.526 22.0267L117.701 15.1458L114.89 22.0267H120.526Z" fill="#F3BA2F"/>
<path d="M134.048 9.69278H138.351L148.29 22.747V9.69278H152.896V30.9044H148.925L138.654 17.4204V30.9044H134.048V9.69278Z" fill="#F3BA2F"/>
<path d="M169.691 31.2772C168.204 31.2898 166.73 31.002 165.357 30.4305C162.746 29.3525 160.679 27.2642 159.629 24.6427C159.08 23.2848 158.802 21.8328 158.81 20.3681V20.3081C158.786 17.4224 159.898 14.6397 161.903 12.5646C162.891 11.5508 164.073 10.7468 165.379 10.2015C166.799 9.61319 168.324 9.31969 169.862 9.33896C170.771 9.33233 171.679 9.41352 172.572 9.58223C173.337 9.72693 174.084 9.95029 174.803 10.2488C175.455 10.5234 176.075 10.8687 176.651 11.2788C177.213 11.6787 177.742 12.1248 178.231 12.612L175.264 16.0367C174.506 15.3372 173.656 14.7452 172.737 14.277C171.834 13.8454 170.843 13.629 169.843 13.6451C168.159 13.6271 166.547 14.3341 165.42 15.5849C164.867 16.2019 164.434 16.9166 164.143 17.6922C163.839 18.5117 163.686 19.3799 163.692 20.2544V20.3144C163.689 21.1876 163.842 22.0542 164.143 22.8734C164.431 23.6519 164.859 24.3706 165.407 24.9933C166.525 26.2596 168.141 26.9796 169.83 26.9647C170.894 26.9982 171.95 26.7692 172.904 26.2981C173.813 25.8031 174.653 25.1911 175.403 24.4784L178.373 27.4797C177.848 28.0487 177.281 28.5769 176.676 29.0594C176.082 29.5295 175.437 29.931 174.752 30.2567C174.023 30.5998 173.255 30.8535 172.465 31.0118C171.552 31.1947 170.622 31.2838 169.691 31.2772Z" fill="#F3BA2F"/>
<path d="M183.88 9.69278H199.844V13.8441H188.47V18.1471H198.485V22.2984H188.486V26.753H200.001V30.9044H183.889L183.88 9.69278Z" fill="#F3BA2F"/>
</svg>
