<svg width="50" height="50" viewBox="0 0 50 50" fill="none" xmlns="http://www.w3.org/2000/svg">
<rect x="-6.10352e-05" width="50" height="50" rx="25" fill="#DED8F4"/>
<rect x="0.149939" y="0.15" width="49.7" height="49.7" rx="24.85" stroke="white" stroke-opacity="0.5" stroke-width="0.3"/>
<path d="M17.4353 29.9355C23.2418 32.8388 26.7256 32.8388 32.5321 29.9355" stroke="#4E4081" stroke-width="2" stroke-linecap="round" stroke-linejoin="round"/>
<path d="M29.0482 31.6774L30.2095 34C30.2095 34 35.0533 32.4578 36.5966 29.9355C36.5966 28.7742 37.2121 20.4745 33.1127 17.7419C31.3708 16.5806 28.4676 16 28.4676 16L27.3063 18.3226H24.9837" stroke="#4E4081" stroke-width="2" stroke-linecap="round" stroke-linejoin="round"/>
<path d="M20.9517 31.6774L19.7904 34C19.7904 34 14.9467 32.4578 13.4033 29.9355C13.4033 28.7742 12.7878 20.4745 16.8872 17.7419C18.6291 16.5806 21.5323 16 21.5323 16L22.6936 18.3226H25.0162" stroke="#4E4081" stroke-width="2" stroke-linecap="round" stroke-linejoin="round"/>
<path d="M20.9192 27.6129C19.9576 27.6129 19.1772 26.5736 19.1772 25.2904C19.1772 24.0071 19.9576 22.9678 20.9192 22.9678C21.8807 22.9678 22.6611 24.0071 22.6611 25.2904C22.6611 26.5736 21.8807 27.6129 20.9192 27.6129ZM29.0482 27.6129C28.0867 27.6129 27.3063 26.5736 27.3063 25.2904C27.3063 24.0071 28.0867 22.9678 29.0482 22.9678C30.0098 22.9678 30.7902 24.0071 30.7902 25.2904C30.7902 26.5736 30.0098 27.6129 29.0482 27.6129Z" stroke="#4E4081" stroke-width="2" stroke-linecap="round" stroke-linejoin="round"/>
</svg>
