<svg width="50" height="50" viewBox="0 0 50 50" fill="none" xmlns="http://www.w3.org/2000/svg">
<rect x="-6.10352e-05" width="50" height="50" rx="25" fill="#DED8F4"/>
<rect x="0.149939" y="0.15" width="49.7" height="49.7" rx="24.85" stroke="white" stroke-opacity="0.5" stroke-width="0.3"/>
<g clip-path="url(#clip0_1_3271)">
<path fill-rule="evenodd" clip-rule="evenodd" d="M36.4799 18.0653C36.5308 17.7565 36.4979 17.4397 36.3848 17.148C36.2716 16.8562 36.0823 16.6001 35.8365 16.4063C35.5907 16.2126 35.2974 16.0884 34.9873 16.0465C34.6771 16.0046 34.3614 16.0467 34.0731 16.1683L14.1231 24.5683C12.7324 25.154 12.6612 27.1653 14.1231 27.772C15.5706 28.3757 17.0392 28.9275 18.5261 29.4263C19.8887 29.8767 21.3751 30.2932 22.5662 30.411C22.8917 30.8007 23.3012 31.1752 23.7189 31.5193C24.3571 32.0443 25.1247 32.5845 25.9181 33.1025C27.5071 34.1408 29.2699 35.1337 30.4576 35.78C31.8774 36.55 33.5772 35.6633 33.8316 34.1152L36.4799 18.0653ZM16.3596 26.1573L34.0042 18.7292L31.5332 33.7092C30.3677 33.0757 28.6889 32.1272 27.1932 31.1495C26.5039 30.7069 25.8384 30.2283 25.1994 29.7157C25.0286 29.5762 24.8628 29.4306 24.7024 29.2793L29.3236 24.6593C29.5425 24.4406 29.6655 24.1438 29.6656 23.8343C29.6658 23.5248 29.5429 23.228 29.3242 23.0091C29.1054 22.7902 28.8086 22.6671 28.4992 22.667C28.1897 22.6669 27.8928 22.7897 27.6739 23.0085L22.6141 28.0683C21.7577 27.9587 20.5654 27.6413 19.2564 27.2097C18.2819 26.885 17.3151 26.5341 16.3596 26.1573Z" fill="#4E4081"/>
</g>
<defs>
<clipPath id="clip0_1_3271">
<rect width="28" height="28" fill="white" transform="translate(10.9999 11)"/>
</clipPath>
</defs>
</svg>
