<svg width="50" height="50" viewBox="0 0 50 50" fill="none" xmlns="http://www.w3.org/2000/svg">
<rect x="-6.10352e-05" width="50" height="50" rx="25" fill="#DED8F4"/>
<rect x="0.149939" y="0.15" width="49.7" height="49.7" rx="24.85" stroke="white" stroke-opacity="0.5" stroke-width="0.3"/>
<path d="M29.8199 33.768L16.7529 16.968C16.6841 16.8793 16.6415 16.7731 16.63 16.6614C16.6185 16.5497 16.6386 16.437 16.688 16.3361C16.7373 16.2353 16.814 16.1503 16.9093 16.0909C17.0046 16.0315 17.1146 16 17.2269 16H19.7069C19.7982 16.0001 19.8883 16.0211 19.9703 16.0613C20.0522 16.1015 20.1239 16.1599 20.1799 16.232L33.2469 33.032C33.3158 33.1207 33.3584 33.2269 33.3699 33.3386C33.3814 33.4503 33.3613 33.563 33.3119 33.6639C33.2625 33.7647 33.1858 33.8497 33.0906 33.9091C32.9953 33.9685 32.8852 34 32.7729 34H30.2929C30.2016 33.9999 30.1116 33.9789 30.0296 33.9387C29.9476 33.8985 29.8759 33.8401 29.8199 33.768Z" stroke="#4E4081" stroke-width="1.5"/>
<path d="M32.9999 16L16.9999 34" stroke="#4E4081" stroke-width="1.5" stroke-linecap="round"/>
</svg>
